<svg width="35" height="35" viewBox="0 0 35 35" fill="none" xmlns="http://www.w3.org/2000/svg">
<path d="M26.8014 26.8349L29.9882 25.2414V21.2506M20.4132 14.073L17.2264 15.6664L20.4132 14.073ZM17.2264 15.6664L14.0395 14.073L17.2264 15.6664ZM17.2264 15.6664V19.6572V15.6664ZM29.9882 9.27831L26.8014 10.8718L29.9882 9.27831ZM29.9882 9.27831L26.8014 7.68487L29.9882 9.27831ZM29.9882 9.27831V13.2691V9.27831ZM20.4132 4.49798L17.2264 2.90454L14.0395 4.49798H20.4132ZM4.46448 9.27831L7.65136 7.68487L4.46448 9.27831ZM4.46448 9.27831L7.65136 10.8718L4.46448 9.27831ZM4.46448 9.27831V13.2691V9.27831ZM17.2264 31.6152L14.0395 30.0218L17.2264 31.6152ZM17.2264 31.6152L20.4132 30.0218L17.2264 31.6152ZM17.2264 31.6152V27.6244V31.6152ZM7.65136 26.8349L4.46448 25.2414V21.2506L7.65136 26.8349Z" stroke="#BE2623" stroke-width="2.66381" stroke-linecap="round" stroke-linejoin="round"/>
</svg>
