<svg width="29" height="33" viewBox="0 0 29 33" fill="none" xmlns="http://www.w3.org/2000/svg">
<path d="M23.3673 26.5182H22.2496C21.0732 26.5182 19.9555 26.974 19.132 27.7976L16.6173 30.2829C15.4703 31.4153 13.6027 31.4153 12.4556 30.2829L9.94092 27.7976C9.1174 26.974 7.98506 26.5182 6.82331 26.5182H5.72038C3.27922 26.5182 1.30865 24.5623 1.30865 22.1506V6.10658C1.30865 3.69484 3.27922 1.73901 5.72038 1.73901H23.3673C25.8084 1.73901 27.779 3.69484 27.779 6.10658V22.1506C27.779 24.5476 25.8084 26.5182 23.3673 26.5182Z" stroke="#BE2623" stroke-width="2.34415" stroke-miterlimit="10" stroke-linecap="round" stroke-linejoin="round"/>
<path d="M7.19067 12.2532C7.19067 10.8856 8.30831 9.76782 9.67595 9.76782C11.0436 9.76782 12.1612 10.8856 12.1612 12.2532C12.1612 15.0179 8.23477 15.312 7.36714 17.9443C7.19067 18.4884 7.64655 19.0325 8.22007 19.0325H12.1612" stroke="#BE2623" stroke-width="2.34415" stroke-linecap="round" stroke-linejoin="round"/>
<path d="M20.4851 19.0179V10.621C20.4851 10.2386 20.2351 9.9003 19.8675 9.79736C19.4998 9.69442 19.1028 9.84147 18.8969 10.165C17.8381 11.8709 16.691 13.812 15.691 15.5179C15.5293 15.7973 15.5293 16.165 15.691 16.4444C15.8528 16.7238 16.1616 16.9002 16.4998 16.9002H21.8969" stroke="#BE2623" stroke-width="2.34415" stroke-linecap="round" stroke-linejoin="round"/>
</svg>
